<svg width="17" height="17" viewBox="0 0 17 17" fill="none" xmlns="http://www.w3.org/2000/svg">
<path fill-rule="evenodd" clip-rule="evenodd" d="M16.6157 8.20508C16.6157 12.6234 13.034 16.2051 8.61572 16.2051C4.19744 16.2051 0.615723 12.6234 0.615723 8.20508C0.615723 3.7868 4.19744 0.205078 8.61572 0.205078C13.034 0.205078 16.6157 3.7868 16.6157 8.20508ZM8.06572 4.25508C8.06572 3.95508 8.31572 3.70508 8.61572 3.70508C8.91572 3.70508 9.16572 3.95508 9.21572 4.25508V7.65508H12.6657C12.9657 7.65508 13.2157 7.90508 13.2157 8.20508C13.2157 8.50508 12.9657 8.75508 12.6657 8.75508H9.21572V12.2051C9.21572 12.5051 8.96572 12.7551 8.66572 12.7551C8.36572 12.7551 8.11572 12.5051 8.11572 12.2051V8.75508H4.66572C4.36572 8.75508 4.11572 8.50508 4.11572 8.20508C4.11572 7.90508 4.36572 7.65508 4.66572 7.70508H8.06572V4.25508Z" fill="#6F6F6F"/>
</svg>
