<svg width="17" height="17" viewBox="0 0 17 17" fill="none" xmlns="http://www.w3.org/2000/svg">
<path d="M5.53772 1.37725C5.53772 1.12725 5.73772 0.927246 5.98772 0.927246H13.1877C14.2377 0.927246 14.8877 1.82725 15.0377 2.67725C15.0377 2.72725 15.0377 2.72725 15.0377 2.77725V15.1272C15.0377 16.1272 14.1877 16.9772 13.1877 16.9772H3.88772C2.88772 16.9772 2.03772 16.1272 2.03772 15.1272V4.77725C2.03772 4.52725 2.23772 4.32725 2.48772 4.32725C2.73772 4.32725 2.93772 4.52725 2.93772 4.77725V15.1272C2.93772 15.6272 3.33772 16.0272 3.83772 16.0272H13.1877C13.6877 16.0272 14.0877 15.6272 14.0877 15.1272V2.82725C13.9877 2.22725 13.5877 1.87725 13.1877 1.87725H5.98772C5.73772 1.87725 5.53772 1.67725 5.53772 1.37725Z" fill="#6F6F6F"/>
<path d="M6.03773 0.977319C6.18773 1.02732 6.33773 1.22732 6.33773 1.37732V4.67732C6.33773 4.92732 6.13773 5.12732 5.88773 5.12732H2.48773C2.28773 5.12732 2.13773 5.02732 2.03773 4.82732C1.98773 4.67732 2.03773 4.47732 2.18773 4.32732L5.53773 1.07732C5.68773 0.927319 5.88773 0.877319 6.03773 0.977319ZM3.63773 4.22732H5.38773V2.47732L3.63773 4.22732Z" fill="#6F6F6F"/>
</svg>
