<svg width="21" height="21" viewBox="0 0 21 21" fill="none" xmlns="http://www.w3.org/2000/svg">
<path d="M10.1938 0.173828C4.69385 0.173828 0.193848 4.67383 0.193848 10.1738C0.193848 15.6738 4.69385 20.1738 10.1938 20.1738C15.6938 20.1738 20.1938 15.6738 20.1938 10.1738C20.1938 4.67383 15.6938 0.173828 10.1938 0.173828ZM10.1938 18.8613C5.38135 18.8613 1.50635 14.9863 1.50635 10.1738C1.50635 5.36133 5.38135 1.48633 10.1938 1.48633C15.0063 1.48633 18.8813 5.36133 18.8813 10.1738C18.8813 14.9863 15.0063 18.8613 10.1938 18.8613Z" fill="#E12764"/>
<path d="M14.3666 6.00103C14.097 5.73143 13.6599 5.73143 13.3903 6.00103L10.1938 9.1975L6.99738 6.00103C6.72777 5.73143 6.29065 5.73143 6.02105 6.00103C5.75145 6.27063 5.75145 6.70775 6.02105 6.97736L9.21752 10.1738L6.02105 13.3703C5.75145 13.6399 5.75144 14.077 6.02105 14.3466C6.29066 14.6162 6.72778 14.6162 6.99738 14.3466L10.1938 11.1502L13.3903 14.3466C13.6599 14.6162 14.097 14.6162 14.3666 14.3466C14.6362 14.077 14.6363 13.6399 14.3666 13.3703L11.1702 10.1738L14.3666 6.97736C14.6362 6.70776 14.6363 6.27064 14.3666 6.00103Z" fill="#E12764"/>
</svg>
