<svg width="21" height="21" viewBox="0 0 21 21" fill="none" xmlns="http://www.w3.org/2000/svg">
<path fill-rule="evenodd" clip-rule="evenodd" d="M10.5571 20.3691C16.08 20.3691 20.5571 15.892 20.5571 10.3691C20.5571 4.84629 16.08 0.369141 10.5571 0.369141C5.03428 0.369141 0.557129 4.84629 0.557129 10.3691C0.557129 15.892 5.03428 20.3691 10.5571 20.3691ZM6.38433 7.17267C6.11473 6.90307 6.11473 6.46595 6.38433 6.19634C6.65394 5.92674 7.09106 5.92674 7.36066 6.19634L10.5571 9.39281L13.7536 6.19634C14.0232 5.92674 14.4603 5.92674 14.7299 6.19634C14.9995 6.46595 14.9995 6.90307 14.7299 7.17267L11.5335 10.3691L14.7299 13.5656C14.9995 13.8352 14.9995 14.2723 14.7299 14.5419C14.4603 14.8115 14.0232 14.8115 13.7536 14.5419L10.5571 11.3455L7.36066 14.5419C7.09105 14.8115 6.65393 14.8115 6.38433 14.5419C6.11473 14.2723 6.11473 13.8352 6.38433 13.5656L9.5808 10.3691L6.38433 7.17267Z" fill="#E12764"/>
</svg>
