<svg width="21" height="21" viewBox="0 0 21 21" fill="none" xmlns="http://www.w3.org/2000/svg">
<path d="M10.5571 0.369141C5.05713 0.369141 0.557129 4.86914 0.557129 10.3691C0.557129 15.8691 5.05713 20.3691 10.5571 20.3691C16.0571 20.3691 20.5571 15.8691 20.5571 10.3691C20.5571 4.86914 16.0571 0.369141 10.5571 0.369141ZM10.5571 19.0566C5.74463 19.0566 1.86963 15.1816 1.86963 10.3691C1.86963 5.55664 5.74463 1.68164 10.5571 1.68164C15.3696 1.68164 19.2446 5.55664 19.2446 10.3691C19.2446 15.1816 15.3696 19.0566 10.5571 19.0566Z" fill="#C9CACA"/>
<path d="M14.7299 6.19634C14.4603 5.92674 14.0232 5.92674 13.7536 6.19634L10.5571 9.39281L7.36066 6.19634C7.09105 5.92674 6.65394 5.92674 6.38433 6.19634C6.11473 6.46595 6.11473 6.90307 6.38433 7.17267L9.5808 10.3691L6.38433 13.5656C6.11473 13.8352 6.11473 14.2723 6.38433 14.5419C6.65394 14.8115 7.09106 14.8115 7.36066 14.5419L10.5571 11.3455L13.7536 14.5419C14.0232 14.8115 14.4603 14.8115 14.7299 14.5419C14.9995 14.2723 14.9995 13.8352 14.7299 13.5656L11.5335 10.3691L14.7299 7.17267C14.9995 6.90307 14.9995 6.46595 14.7299 6.19634Z" fill="#C9CACA"/>
</svg>
