<svg width="33" height="47" viewBox="0 0 33 47" fill="none" xmlns="http://www.w3.org/2000/svg">
<path fill-rule="evenodd" clip-rule="evenodd" d="M10.2247 0.308594L0.117676 10.3711V42.1108C0.117676 44.5633 2.10769 46.5064 4.51328 46.5064H28.1616C30.5657 46.5064 32.5572 44.5649 32.5572 42.1547V4.7042C32.5572 2.25164 30.5672 0.308594 28.1616 0.308594H10.2247ZM10.8869 1.18771V6.6865C10.8407 9.08948 8.89917 11.0339 6.49128 11.0339H0.996797V42.1108C0.996797 44.0553 2.56873 45.6273 4.51328 45.6273H28.1616C30.1062 45.6273 31.6781 44.0553 31.6781 42.1108V4.7042C31.6781 2.75965 30.1062 1.18771 28.1616 1.18771H10.8869ZM0.646492 10.1548H0.646455L10.0078 0.834728V0.834765L0.646492 10.1548ZM10.2275 1.54251L10.2276 1.54248V6.63837C10.2276 8.70431 8.55724 10.3746 6.49131 10.3746H1.39542L1.39547 10.3746H6.49128C8.55722 10.3746 10.2275 8.70425 10.2275 6.63832V1.54251ZM10.0078 1.76229V6.63832C10.0078 8.58287 8.43584 10.1548 6.49128 10.1548H1.61525L10.0078 1.76229ZM10.3155 0.528428H10.8869H28.1616C29.7347 0.528428 31.1204 1.40283 31.8316 2.70747C31.1204 1.4028 29.7347 0.528374 28.1616 0.528374H10.3155L10.3154 0.528428H10.3155ZM0.776999 11.0339V42.1108C0.776999 44.1768 2.44733 45.8471 4.51326 45.8471H28.1616C28.4148 45.8471 28.662 45.822 28.9009 45.7742C28.662 45.822 28.4148 45.8471 28.1616 45.8471H4.51328C2.44735 45.8471 0.777016 44.1767 0.777016 42.1108V11.0339H0.776999ZM32.3375 4.7042L32.3374 4.70425V42.1548C32.3374 42.1726 32.3373 42.1904 32.3371 42.2082C32.3372 42.199 32.3373 42.1897 32.3374 42.1805C32.3374 42.1719 32.3375 42.1633 32.3375 42.1547V4.7042Z" fill="#C2C2C2"/>
<path d="M13.1583 22.0687H17.4561C17.478 22.0699 17.4998 22.0699 17.5217 22.0687C17.8558 22.0506 18.1121 21.765 18.094 21.4309C18.094 21.0785 17.8084 20.793 17.4561 20.793H13.1583C12.806 20.793 12.5204 21.0785 12.5204 21.4309C12.5192 21.4527 12.5192 21.4746 12.5204 21.4964C12.5385 21.8306 12.8241 22.0869 13.1583 22.0687Z" fill="#E12764"/>
<path d="M13.1583 27.4906H22.5517C22.5735 27.4918 22.5954 27.4918 22.6172 27.4906C22.9514 27.4725 23.2077 27.1869 23.1895 26.8527C23.1895 26.5004 22.904 26.2148 22.5517 26.2148H13.1583C12.806 26.2148 12.5204 26.5004 12.5204 26.8527C12.5192 26.8746 12.5192 26.8964 12.5204 26.9183C12.5385 27.2525 12.8241 27.5087 13.1583 27.4906Z" fill="#E12764"/>
<path d="M13.1583 24.6215H22.3629C22.3848 24.6226 22.4066 24.6226 22.4285 24.6215C22.7627 24.6033 23.0189 24.3178 23.0008 23.9836C23.0008 23.6313 22.7152 23.3457 22.3629 23.3457H13.1583C12.806 23.3457 12.5204 23.6313 12.5204 23.9836C12.5192 24.0054 12.5192 24.0273 12.5204 24.0492C12.5385 24.3833 12.8241 24.6396 13.1583 24.6215Z" fill="#E12764"/>
<path d="M25.6927 17.4121L10.0327 17.4121C9.66878 17.4106 9.36409 17.6876 9.331 18.05V20.6015H6.98244C6.61854 20.6 6.31385 20.877 6.28076 21.2394V36.5486C6.28925 36.7893 6.43949 37.0022 6.66347 37.0909C6.75712 37.1554 6.86871 37.1889 6.98238 37.1865C7.10612 37.1893 7.22804 37.1561 7.33322 37.0909L11.2243 34.3161H20.7491C21.1183 34.3013 21.4189 34.0144 21.4508 33.6463V31.1267L25.31 33.9015C25.4284 33.9626 25.5594 33.9953 25.6927 33.9971C26.0459 33.9724 26.3362 33.7086 26.3943 33.3593V18.05C26.3613 17.6876 26.0567 17.4106 25.6927 17.4121ZM20.175 33.0403H11.033C10.8895 33.0417 10.748 33.0744 10.6184 33.136L7.55653 35.3048V21.8773H9.331V30.4568C9.36287 30.8249 9.66347 31.1119 10.0327 31.1266H20.1751L20.175 33.0403ZM25.1186 32.1154L22.0568 29.9466C21.9272 29.885 21.7857 29.8523 21.6422 29.8509H10.6068V18.6879H25.1186V32.1154Z" fill="#6F6F6F"/>
</svg>
