<svg width="34" height="48" viewBox="0 0 34 48" fill="none" xmlns="http://www.w3.org/2000/svg">
<path fill-rule="evenodd" clip-rule="evenodd" d="M10.9664 0.957031L0.859375 11.0196V42.7592C0.859375 45.2118 2.84939 47.1548 5.25498 47.1548H28.9033C31.3074 47.1548 33.2989 45.2133 33.2989 42.8032V5.35264C33.2989 2.90008 31.3089 0.957031 28.9033 0.957031H10.9664ZM11.6286 1.83615V7.33494C11.5824 9.73791 9.64087 11.6824 7.23298 11.6824H1.7385V42.7592C1.7385 44.7038 3.31043 46.2757 5.25498 46.2757H28.9033C30.8479 46.2757 32.4198 44.7038 32.4198 42.7592V5.35264C32.4198 3.40808 30.8479 1.83615 28.9033 1.83615H11.6286ZM1.38819 10.8032H1.38815L10.7495 1.48317V1.4832L1.38819 10.8032ZM10.9692 2.19094L10.9693 2.19092V7.28681C10.9693 9.35274 9.29894 11.0231 7.23301 11.0231H2.13712L2.13717 11.023H7.23298C9.29892 11.023 10.9692 9.35269 10.9692 7.28676V2.19094ZM10.7495 2.41072V7.28676C10.7495 9.23131 9.17754 10.8032 7.23298 10.8032H2.35695L10.7495 2.41072ZM11.0572 1.17687H11.6286H28.9033C30.4764 1.17687 31.8621 2.05126 32.5733 3.35591C31.8621 2.05124 30.4764 1.17681 28.9033 1.17681H11.0572L11.0571 1.17687H11.0572ZM1.5187 11.6824V42.7593C1.5187 44.8252 3.18903 46.4955 5.25496 46.4955H28.9033C29.1565 46.4955 29.4037 46.4704 29.6426 46.4226C29.4037 46.4704 29.1565 46.4955 28.9033 46.4955H5.25498C3.18905 46.4955 1.51872 44.8252 1.51872 42.7592V11.6824H1.5187ZM33.0792 5.35264L33.0791 5.35269V42.8032C33.0791 42.8211 33.079 42.8389 33.0788 42.8567C33.0789 42.8474 33.079 42.8382 33.0791 42.8289C33.0791 42.8203 33.0792 42.8118 33.0792 42.8032V5.35264Z" fill="#C9CACA"/>
<g clip-path="url(#clip03)">
<path d="M8.0791 28.95C8.0791 28.7812 8.13535 28.6125 8.24785 28.5L16.4604 20.3438L18.4854 18.2625C18.7666 18.0375 19.1604 18.0375 19.3854 18.2625L22.3104 21.2437C22.5354 21.525 22.5354 21.9187 22.3104 22.1437L12.1291 32.3812C12.0166 32.4937 11.8479 32.55 11.6791 32.55H8.69785C8.5291 32.55 8.36035 32.4937 8.24785 32.3812C8.13535 32.2688 8.0791 32.1 8.0791 31.9313V28.95ZM9.37285 29.2312V31.3125H11.4541L18.9916 23.775L16.9104 21.6938L9.37285 29.2312ZM18.9916 19.6125L17.8104 20.7938L19.8916 22.875L21.0166 21.6938L18.9916 19.6125Z" fill="#6F6F6F"/>
<path d="M8.1916 34.6875H25.9104C25.9666 34.6875 26.0229 34.7438 26.0229 34.8V35.925C26.0229 35.9812 25.9666 36.0375 25.9104 36.0375H8.1916C8.13535 36.0937 8.0791 36.0375 8.0791 35.9812V34.8562C8.0791 34.7437 8.13535 34.6875 8.1916 34.6875Z" fill="#E12764"/>
</g>
<defs>
<clipPath id="clip03">
<rect width="18" height="18" fill="white" transform="translate(8.0791 18.0938)"/>
</clipPath>
</defs>
</svg>
