<svg width="14" height="17" viewBox="0 0 14 17" fill="none" xmlns="http://www.w3.org/2000/svg">
<path fill-rule="evenodd" clip-rule="evenodd" d="M11.6672 0.906738H12.1172C12.6672 0.906738 13.1172 1.35674 13.1172 1.90674V2.35674V3.80674V15.1067V15.4567V15.9067C13.1172 16.4567 12.6672 16.9067 12.1172 16.9067H11.6672H11.4172H1.81719H1.56719H1.11719C0.567187 16.9067 0.117188 16.4567 0.117188 15.9067V15.4567V15.1067V4.80674H3.01719H3.51719C3.81719 4.80674 4.01719 4.60674 4.01719 4.30674V3.80674V0.906738H10.3672H11.6672ZM3.28521 3.80166C3.28521 3.96552 3.17597 4.07476 3.0121 4.07476H0.117188L3.23059 0.906738H3.28521V3.80166Z" fill="white"/>
</svg>
