<svg width="20" height="21" viewBox="0 0 20 21" fill="none" xmlns="http://www.w3.org/2000/svg">
<g clip-path="url(#clip721)">
<path d="M0 12.582C0 12.3945 0.0625 12.207 0.1875 12.082L9.3125 3.01953L11.5625 0.707031C11.875 0.457031 12.3125 0.457031 12.5625 0.707031L15.8125 4.01953C16.0625 4.33203 16.0625 4.76953 15.8125 5.01953L4.5 16.3945C4.375 16.5195 4.1875 16.582 4 16.582H0.6875C0.5 16.582 0.3125 16.5195 0.1875 16.3945C0.0625 16.2695 0 16.082 0 15.8945V12.582ZM1.4375 12.8945V15.207H3.75L12.125 6.83203L9.8125 4.51953L1.4375 12.8945ZM12.125 2.20703L10.8125 3.51953L13.125 5.83203L14.375 4.51953L12.125 2.20703Z" fill="#E12764"/>
<path d="M0.125 18.957H19.8125C19.875 18.957 19.9375 19.0195 19.9375 19.082V20.332C19.9375 20.3945 19.875 20.457 19.8125 20.457H0.125C0.0625 20.5195 0 20.457 0 20.3945V19.1445C0 19.0195 0.0625 18.957 0.125 18.957Z" fill="#E12764"/>
</g>
<defs>
<clipPath id="clip721">
<rect width="20" height="20" fill="white" transform="translate(0 0.519531)"/>
</clipPath>
</defs>
</svg>
