<svg width="21" height="14" viewBox="0 0 21 14" fill="none" xmlns="http://www.w3.org/2000/svg">
<path d="M10.749 0.0195312C6.20357 0.0195312 2.32175 2.8468 0.749023 6.83771C2.32175 10.8286 6.20357 13.6559 10.749 13.6559C15.2945 13.6559 19.1763 10.8286 20.749 6.83771C19.1763 2.8468 15.299 0.0195312 10.749 0.0195312ZM10.749 11.3832C8.23993 11.3832 6.20357 9.3468 6.20357 6.83771C6.20357 4.32862 8.23993 2.29226 10.749 2.29226C13.2581 2.29226 15.2945 4.32862 15.2945 6.83771C15.2945 9.3468 13.2581 11.3832 10.749 11.3832ZM10.749 4.11044C9.24448 4.11044 8.02175 5.33317 8.02175 6.83771C8.02175 8.34226 9.24448 9.56499 10.749 9.56499C12.2536 9.56499 13.4763 8.34226 13.4763 6.83771C13.4763 5.33317 12.2536 4.11044 10.749 4.11044Z" fill="#C2C2C2"/>
</svg>
