<svg width="17" height="17" viewBox="0 0 17 17" fill="none" xmlns="http://www.w3.org/2000/svg">
<g clip-path="url(#clip442)">
<path d="M15.9371 7.13984L13.9371 6.98984C13.7871 6.48984 13.6371 6.03984 13.3871 5.58984L14.6871 4.08984C14.7871 3.93984 14.7871 3.73984 14.6871 3.63984L13.1871 2.13984C13.0371 1.98984 12.8371 1.98984 12.7371 2.13984L11.2371 3.43984C10.7871 3.18984 10.3371 2.98984 9.83711 2.88984L9.68711 0.889844C9.68711 0.689844 9.53711 0.589844 9.33711 0.589844H7.23711C7.03711 0.589844 6.88711 0.739844 6.88711 0.889844L6.73711 2.88984C6.23711 3.03984 5.78711 3.18984 5.33711 3.43984L3.83711 2.13984C3.63711 1.98984 3.43711 2.03984 3.33711 2.13984L1.83711 3.63984C1.73711 3.73984 1.68711 3.93984 1.83711 4.08984L3.13711 5.58984C2.88711 6.03984 2.68711 6.48984 2.58711 6.98984L0.587109 7.13984C0.387109 7.13984 0.287109 7.28984 0.287109 7.48984V9.58984C0.287109 9.78984 0.437109 9.93984 0.587109 9.93984L2.58711 10.0898C2.73711 10.5898 2.88711 11.0398 3.13711 11.4898L1.83711 12.9898C1.73711 13.1398 1.73711 13.3398 1.83711 13.4398L3.33711 14.9398C3.48711 15.0898 3.68711 15.0898 3.78711 14.9398L5.28711 13.6398C5.73711 13.8898 6.18711 14.0898 6.68711 14.1898L6.83711 16.1898C6.83711 16.3898 6.98711 16.4898 7.18711 16.4898H9.28711C9.48711 16.4898 9.63711 16.3398 9.63711 16.1898L9.78711 14.1898C10.2871 14.0398 10.7371 13.8898 11.1871 13.6398L12.6871 14.9398C12.8371 15.0398 13.0371 15.0398 13.1371 14.9398L14.6371 13.4398C14.7871 13.2898 14.7871 13.0898 14.6371 12.9898L13.3371 11.4898C13.5871 11.0398 13.7871 10.5898 13.8871 10.0898L15.8871 9.93984C16.0871 9.93984 16.1871 9.78984 16.1871 9.58984V7.48984C16.2371 7.33984 16.0871 7.18984 15.9371 7.13984ZM8.23711 10.9898C6.88711 10.9898 5.78711 9.88984 5.78711 8.53984C5.78711 7.18984 6.88711 6.08984 8.23711 6.08984C9.58711 6.08984 10.6871 7.18984 10.6871 8.53984C10.6871 9.88984 9.58711 10.9898 8.23711 10.9898Z" fill="white"/>
</g>
<defs>
<clipPath id="clip442">
<rect width="16" height="16" fill="white" transform="translate(0.237305 0.539062)"/>
</clipPath>
</defs>
</svg>
