<svg width="14" height="17" viewBox="0 0 14 17" fill="none" xmlns="http://www.w3.org/2000/svg">
<path fill-rule="evenodd" clip-rule="evenodd" d="M12.1133 0.333984H11.6633H10.3633H4.01328V3.23398V3.73398C4.01328 4.03398 3.81328 4.23398 3.51328 4.23398H3.01328H0.113281V14.534V14.884V15.334C0.113281 15.884 0.563281 16.334 1.11328 16.334H1.56328H1.81328H11.4133H11.6633H12.1133C12.6633 16.334 13.1133 15.884 13.1133 15.334V14.884V14.534V3.23398V1.78398V1.33398C13.1133 0.783984 12.6633 0.333984 12.1133 0.333984ZM3.0082 3.50201C3.17206 3.50201 3.2813 3.39276 3.2813 3.2289V0.333984H3.22668L0.113281 3.50201H3.0082ZM9.46328 9.55898L10.4633 9.63398C10.5383 9.65898 10.6133 9.73398 10.5883 9.80898V10.859C10.5883 10.959 10.5383 11.034 10.4383 11.034L9.43828 11.109C9.38828 11.359 9.28828 11.584 9.16328 11.809L9.81328 12.559C9.88828 12.609 9.88828 12.709 9.81328 12.784L9.06328 13.534C9.01328 13.584 8.91328 13.584 8.83828 13.534L8.08828 12.884C7.86328 13.009 7.63828 13.084 7.38828 13.159L7.31328 14.159C7.31328 14.234 7.23828 14.309 7.13828 14.309H6.08828C5.98828 14.309 5.91328 14.259 5.91328 14.159L5.83828 13.159C5.58828 13.109 5.36328 13.009 5.13828 12.884L4.38828 13.534C4.33828 13.609 4.23828 13.609 4.16328 13.534L3.41328 12.784C3.36328 12.734 3.36328 12.634 3.41328 12.559L4.06328 11.809C3.93828 11.584 3.86328 11.359 3.78828 11.109L2.78828 11.034C2.71328 11.034 2.63828 10.959 2.63828 10.859V9.80898C2.63828 9.70898 2.68828 9.63398 2.78828 9.63398L3.78828 9.55898C3.83828 9.30898 3.93828 9.08398 4.06328 8.85898L3.41328 8.10898C3.33828 8.03398 3.36328 7.93398 3.41328 7.88398L4.16328 7.13398C4.21328 7.08398 4.31328 7.05898 4.41328 7.13398L5.16328 7.78398C5.38828 7.65898 5.61328 7.58398 5.86328 7.50898L5.93828 6.50898C5.93828 6.43398 6.01328 6.35898 6.11328 6.35898H7.16328C7.26328 6.35898 7.33828 6.40898 7.33828 6.50898L7.41328 7.50898C7.66328 7.55898 7.88828 7.65898 8.11328 7.78398L8.86328 7.13398C8.91328 7.05898 9.01328 7.05898 9.08828 7.13398L9.83828 7.88398C9.88828 7.93398 9.88828 8.03398 9.83828 8.10898L9.18828 8.85898C9.31328 9.08398 9.38828 9.30898 9.46328 9.55898ZM5.38828 10.334C5.38828 11.009 5.93828 11.559 6.61328 11.559C7.28828 11.559 7.83828 11.009 7.83828 10.334C7.83828 9.65898 7.28828 9.10898 6.61328 9.10898C5.93828 9.10898 5.38828 9.65898 5.38828 10.334Z" fill="white"/>
</svg>
