<svg width="20" height="21" viewBox="0 0 20 21" fill="none" xmlns="http://www.w3.org/2000/svg">
<g clip-path="url(#clip0)">
<path d="M17.0695 3.7938C13.1625 -0.113246 6.83812 -0.11387 2.93053 3.7938C-0.976551 7.70084 -0.977137 14.0251 2.93053 17.9328C6.8375 21.8398 13.1619 21.8404 17.0695 17.9328C20.9765 14.0257 20.9771 7.70143 17.0695 3.7938ZM16.6516 16.5076C16.1845 16.0899 15.6848 15.7202 15.1581 15.4017C15.5062 14.1992 15.7125 12.8759 15.7612 11.5004H18.7006C18.5677 13.3545 17.8553 15.0937 16.6516 16.5076ZM1.29936 11.5004H4.23872C4.28747 12.8759 4.49371 14.1992 4.84182 15.4017C4.31514 15.7202 3.81547 16.0899 3.34836 16.5076C2.14465 15.0937 1.4323 13.3545 1.29936 11.5004ZM3.34839 5.21896C3.81551 5.63667 4.31518 6.00633 4.84186 6.3249C4.49375 7.52739 4.28751 8.85065 4.23876 10.2262H1.29936C1.4323 8.37213 2.14465 6.63289 3.34839 5.21896ZM9.3629 6.45659C8.32382 6.38227 7.32195 6.12635 6.39314 5.70415C6.93332 4.31314 7.92915 2.64478 9.3629 2.23132V6.45659ZM9.3629 7.7332V10.2262H5.5135C5.55761 9.06262 5.72247 7.94529 5.99666 6.92296C7.05217 7.38438 8.18733 7.65994 9.3629 7.7332ZM9.3629 11.5004V13.9934C8.18733 14.0667 7.05217 14.3422 5.99666 14.8036C5.72247 13.7813 5.55761 12.664 5.5135 11.5004H9.3629ZM9.3629 15.27V19.4952C7.92922 19.0818 6.9334 17.4136 6.39314 16.0224C7.32195 15.6003 8.32382 15.3443 9.3629 15.27ZM10.6371 15.27C11.6762 15.3443 12.678 15.6003 13.6069 16.0224C13.0666 17.4135 12.0708 19.0818 10.6371 19.4952V15.27ZM10.6371 13.9934V11.5004H14.4865C14.4424 12.664 14.2775 13.7813 14.0033 14.8036C12.9478 14.3422 11.8127 14.0667 10.6371 13.9934ZM10.6371 10.2262V7.7332C11.8127 7.65994 12.9478 7.38438 14.0033 6.92296C14.2775 7.94529 14.4424 9.06262 14.4865 10.2262H10.6371ZM10.6371 6.45659V2.23136C12.0708 2.64481 13.0667 4.31318 13.6069 5.70419C12.678 6.12635 11.6762 6.38227 10.6371 6.45659ZM13.4988 2.86745C14.3144 3.22458 15.0752 3.70883 15.7573 4.30967C15.4326 4.59592 15.0901 4.85547 14.7323 5.08759C14.4147 4.30104 14.0089 3.53666 13.4988 2.86745ZM5.26761 5.08759C4.90989 4.85547 4.56736 4.59592 4.24266 4.30967C4.92472 3.70883 5.68559 3.22458 6.50113 2.86745C5.99108 3.53674 5.58528 4.30112 5.26761 5.08759ZM5.26765 16.639C5.58528 17.4255 5.99116 18.1899 6.50117 18.8592C5.68563 18.502 4.92476 18.0178 4.2427 17.4169C4.56736 17.1307 4.90993 16.8711 5.26765 16.639ZM14.7323 16.639C15.0901 16.8711 15.4326 17.1307 15.7573 17.4169C15.0752 18.0177 14.3144 18.502 13.4988 18.8591C14.0088 18.19 14.4147 17.4256 14.7323 16.639ZM15.7613 10.2262C15.7125 8.85069 15.5063 7.52739 15.1582 6.32494C15.6848 6.00637 16.1845 5.63671 16.6516 5.219C17.8553 6.63289 18.5677 8.37213 18.7006 10.2262H15.7613Z" fill="#3D3D3D"/>
</g>
<defs>
<clipPath id="clip0">
<rect width="20" height="20" fill="white" transform="translate(0 0.863281)"/>
</clipPath>
</defs>
</svg>
