<svg width="17" height="17" viewBox="0 0 17 17" fill="none" xmlns="http://www.w3.org/2000/svg">
<path d="M8.19336 0.28125C3.79336 0.28125 0.193359 3.88125 0.193359 8.28125C0.193359 12.6812 3.79336 16.2812 8.19336 16.2812C12.5934 16.2812 16.1934 12.6812 16.1934 8.28125C16.1934 3.88125 12.5934 0.28125 8.19336 0.28125ZM8.84336 12.7812C8.84336 12.8313 8.79336 12.8813 8.79336 12.8813H7.64336C7.59336 12.8813 7.59336 12.8313 7.59336 12.7812V11.6313C7.59336 11.5813 7.64336 11.5312 7.64336 11.5312H8.79336C8.84336 11.5312 8.84336 11.5813 8.84336 11.6313V12.7812ZM10.1934 8.13125L9.59336 8.73125C9.14336 9.18125 8.84336 9.58125 8.84336 10.4812C8.84336 10.5312 8.79336 10.5813 8.79336 10.5813H7.54336V10.2312C7.54336 9.53125 7.84336 8.88125 8.29336 8.38125L9.09336 7.58125C9.44336 7.23125 9.59336 6.73125 9.39336 6.23125C9.24336 5.83125 8.89336 5.53125 8.49336 5.43125C7.64336 5.23125 6.89336 5.83125 6.84336 6.63125C6.84336 6.68125 6.79336 6.68125 6.79336 6.68125H5.64336C5.59336 6.68125 5.54336 6.63125 5.54336 6.58125C5.59336 5.18125 6.74336 4.03125 8.14336 4.03125C9.04336 4.03125 9.84336 4.53125 10.2934 5.23125C11.0934 6.33125 10.8434 7.43125 10.1934 8.13125Z" fill="#C9CACA"/>
</svg>
