<svg
width="21"
height="21"
viewBox="0 0 21 21"
fill="none"
xmlns="http://www.w3.org/2000/svg">
<path
    fill-rule="evenodd"
    clip-rule="evenodd"
    d="M10.8901 0.367188C5.37639 0.367188 0.890137 4.85344 0.890137 10.3672C0.890137 15.8809 5.37639 20.3672 10.8901 20.3672C16.4039 20.3672 20.8901 15.8809 20.8901 10.3672C20.8901 4.85344 16.4039 0.367188 10.8901 0.367188ZM10.8901 19.1172C6.06514 19.1172 2.14014 15.1922 2.14014 10.3672C2.14014 5.54219 6.06514 1.61719 10.8901 1.61719C15.7151 1.61719 19.6401 5.54219 19.6401 10.3672C19.6401 15.1922 15.7151 19.1172 10.8901 19.1172ZM10.8899 4.74219C8.16552 4.74219 5.88865 6.68969 5.3749 9.26469L4.5149 8.11844L3.5149 8.86844L5.3899 11.3684C5.5124 11.5322 5.70052 11.6184 5.89052 11.6184C6.02052 11.6184 6.1524 11.5778 6.2649 11.4934L8.7649 9.61844L8.0149 8.61844L6.57115 9.70156C6.89365 7.60469 8.70427 5.99219 10.8899 5.99219C12.4474 5.99219 13.8999 6.83156 14.6805 8.18219L15.7624 7.55656C14.7593 5.82094 12.8924 4.74219 10.8899 4.74219ZM15.5029 9.8756C15.7717 9.66248 16.1629 9.70623 16.3779 9.9756L18.3779 12.4762L17.4017 13.2568L16.4154 12.0237C15.9286 14.6331 13.6386 16.6162 10.8898 16.6162C8.88793 16.6162 7.02168 15.5387 6.01793 13.8043L7.0998 13.1781C7.88043 14.5281 9.33293 15.3662 10.8898 15.3662C13.0579 15.3662 14.8579 13.7787 15.2011 11.7056L13.9023 12.7312L13.1279 11.7506L15.5029 9.8756Z"
    fill="#383E3B"
/>
</svg>