<svg viewBox="0 0 17 17" fill="none" xmlns="http://www.w3.org/2000/svg" width='17' height='17'>
<g clip-path="url(#clip890)">
<path d="M8.89014 0.523438C4.49014 0.523438 0.890137 4.12344 0.890137 8.52344C0.890137 12.9234 4.49014 16.5234 8.89014 16.5234C13.2901 16.5234 16.8901 12.9234 16.8901 8.52344C16.8901 4.12344 13.2901 0.523438 8.89014 0.523438ZM8.89014 15.4734C5.04014 15.4734 1.94014 12.3734 1.94014 8.52344C1.94014 4.67344 5.04014 1.57344 8.89014 1.57344C12.7401 1.57344 15.8401 4.67344 15.8401 8.52344C15.8401 12.3734 12.7401 15.4734 8.89014 15.4734Z" fill="#E12764"/>
<path d="M9.49014 6.72266H8.24014C8.19014 6.72266 8.14014 6.77266 8.14014 6.82266V12.8727C8.14014 12.9227 8.19014 12.9727 8.24014 12.9727H9.49014C9.54014 12.9727 9.59014 12.9227 9.59014 12.8727V6.82266C9.64014 6.77266 9.59014 6.72266 9.49014 6.72266Z" fill="#E12764"/>
<path d="M9.49014 4.02344H8.24014C8.19014 4.02344 8.14014 4.07344 8.14014 4.12344V5.37344C8.14014 5.42344 8.19014 5.47344 8.24014 5.47344H9.49014C9.54014 5.47344 9.59014 5.42344 9.59014 5.37344V4.17344C9.64014 4.07344 9.59014 4.02344 9.49014 4.02344Z" fill="#E12764"/>
</g>
<defs>
<clipPath id="clip890">
<rect width="16" height="16" fill="white" transform="translate(0.890137 0.523438)"/>
</clipPath>
</defs>
</svg>
