<svg width="17" height="17" viewBox="0 0 17 17" fill="none" xmlns="http://www.w3.org/2000/svg">
<g clip-path="url(#clip0)">
<path d="M13.3212 6.875H4.51844C3.86001 6.875 3.31982 7.41065 3.31982 8.07144V15.2786C3.31982 15.9383 3.85645 16.475 4.51844 16.475H13.3213C13.9796 16.475 14.5199 15.9394 14.5199 15.2786V8.07144C14.5198 7.4117 13.9832 6.875 13.3212 6.875ZM12.9198 14.875H4.91984V8.47498H12.9198V14.875Z" fill="#383E3B"/>
<path d="M9.06053 0.474609H8.77935C6.64879 0.474609 4.91992 2.20606 4.91992 4.33628V7.39797H6.51994V4.33628C6.51994 3.08918 7.53296 2.07462 8.77935 2.07462H9.06053C10.3062 2.07462 11.3199 3.08851 11.3199 4.33681V5.27461H12.92V4.33677C12.92 2.2049 11.19 0.474609 9.06053 0.474609Z" fill="#383E3B"/>
</g>
<defs>
<clipPath id="clip0">
<rect width="16" height="16" fill="white" transform="translate(0.919922 0.474609)"/>
</clipPath>
</defs>
</svg>
