<svg width="25" height="25" viewBox="0 0 25 25" fill="none" xmlns="http://www.w3.org/2000/svg">
<circle cx="12.8901" cy="12.1738" r="12" fill="#383E3B"/>
<path d="M11.311 13.9048C11.2502 14.7463 10.9386 15.4087 10.3765 15.8921C9.81787 16.3755 9.08024 16.6172 8.16357 16.6172C7.16097 16.6172 6.37142 16.2806 5.79492 15.6074C5.22201 14.9307 4.93555 14.0033 4.93555 12.8252V12.3472C4.93555 11.5952 5.06803 10.9328 5.33301 10.3599C5.59798 9.78695 5.97575 9.34831 6.46631 9.04395C6.96045 8.736 7.53337 8.58203 8.18506 8.58203C9.0874 8.58203 9.81429 8.82373 10.3657 9.30713C10.9172 9.79053 11.2358 10.4691 11.3218 11.3428H9.71045C9.67106 10.8379 9.52962 10.4727 9.28613 10.2471C9.04622 10.0179 8.6792 9.90332 8.18506 9.90332C7.64795 9.90332 7.24512 10.0967 6.97656 10.4834C6.71159 10.8665 6.57552 11.4627 6.56836 12.272V12.8628C6.56836 13.7078 6.69548 14.3255 6.94971 14.7158C7.20752 15.1061 7.61214 15.3013 8.16357 15.3013C8.6613 15.3013 9.0319 15.1885 9.27539 14.9629C9.52246 14.7337 9.6639 14.381 9.69971 13.9048H11.311ZM14.4746 8.68945L16.4834 14.3613L18.4814 8.68945H20.5977V16.5098H18.981V14.3721L19.1421 10.6821L17.0312 16.5098H15.9248L13.8193 10.6875L13.9805 14.3721V16.5098H12.3691V8.68945H14.4746Z" fill="#F9F9F9"/>
</svg>
