<svg width="86" height="85" viewBox="0 0 86 85" fill="none" xmlns="http://www.w3.org/2000/svg">
<path d="M21.8243 30.9038L18.791 38.886L41.7798 51.3383L56.946 22.6023L50.0813 17.813L38.5869 36.651L21.8243 30.9038Z" fill="#CDFAE2"/>
<path d="M74.8258 70.8137C75.624 71.9313 77.5398 74.3259 80.4134 77.3592C66.205 84.5431 42.7373 84.3835 23.8993 84.3835C10.3296 64.2683 1.22986 15.7365 0.431641 4.40177C19.2697 4.40177 41.9391 3.28426 56.9457 0.570312C63.4911 24.5169 73.0697 45.7496 85.2027 63.3105C66.3647 70.4945 47.367 70.3348 28.6887 70.3348C19.4293 54.53 15.9171 42.7164 15.9171 38.7253C15.9171 30.9027 35.2341 35.3727 40.5023 41.9182C44.6531 47.0268 39.0655 50.8582 36.6709 47.5057C33.6376 43.1953 43.0566 24.9959 52.316 18.4505" stroke="#3D3D3D" stroke-width="0.984" stroke-miterlimit="10" stroke-linecap="round" stroke-linejoin="round"/>
</svg>
