<svg width="139" height="85" viewBox="0 0 139 85" fill="none" xmlns="http://www.w3.org/2000/svg">
<path d="M71.1028 53.403C71.1028 53.403 51.3381 59.2944 42.406 61.955C33.2838 64.6156 22.6413 64.8057 15.2295 58.9143L59.51 45.9912C62.5508 47.7016 68.6322 51.5025 71.1028 53.403Z" fill="#CDFAE2"/>
<path d="M100.56 44.4703C100.56 44.4703 125.456 37.8187 129.067 36.4884C132.677 35.1581 137.999 33.0676 138.189 29.0766C138.189 26.226 135.148 23.7554 135.148 23.7554L93.338 36.1083C93.148 36.1083 97.519 40.0993 100.56 44.4703Z" fill="#CDFAE2"/>
<path d="M62.9308 55.8733L42.2158 61.9547C32.5235 64.8054 20.3606 64.2353 15.2294 58.914C12.9489 56.8235 -1.6846 38.1991 0.595944 37.629C11.9987 34.3982 15.6095 33.8281 15.6095 33.8281L31.9534 41.81C47.157 37.819 67.4919 42.9502 102.08 84C108.352 82.0995 122.795 77.9186 122.795 77.9186C102.46 38.7692 70.5326 10.4525 42.976 0L25.3018 5.13122C31.7634 17.4842 46.3968 28.5068 57.2294 30.5973C67.3018 32.4977 73.7634 30.0271 88.7769 25.6561L111.772 18.8145C124.695 15.0136 131.537 20.905 135.908 24.5158C140.469 28.5068 137.999 33.448 129.067 36.1086L110.252 41.6199" stroke="#3D3D3D" stroke-width="0.984" stroke-miterlimit="10" stroke-linecap="round" stroke-linejoin="round"/>
</svg>
