<svg width="96" height="85" viewBox="0 0 96 85" fill="none" xmlns="http://www.w3.org/2000/svg">
<path d="M0.432358 72.7573H95.1914V83.9999H0.432358V72.7573Z" fill="#CDFAE2"/>
<path d="M65.962 8.83259C69.4954 12.366 73.35 14.2933 74.4743 13.169C75.5985 12.0448 73.6712 8.19015 70.1378 4.65677C66.6044 1.12338 62.7498 -0.803925 61.6256 0.320335C61.6256 0.320335 23.5614 38.3846 11.3551 50.5908C5.7338 56.2121 2.0398 72.7548 2.0398 72.7548C2.0398 72.7548 19.7068 67.9365 23.722 63.9213C27.7372 59.9061 27.0947 56.2121 23.5613 52.8393C18.2613 47.8605 14.7279 52.0363 19.5461 56.2121C22.4371 58.7819 25.9705 61.994 37.2131 50.912C48.2951 39.9907 69.1742 19.2721 69.1742 19.2721M2.0398 72.7548C-0.208718 80.464 3.96711 88.3338 25.9705 80.464C42.5132 74.5215 46.2072 74.5215 55.2012 80.464C64.3559 86.5671 70.7803 84.4792 61.9468 72.7548C54.2376 62.4758 70.2984 62.1546 79.4531 76.77C86.5199 88.3338 93.4261 83.0337 94.7109 80.6246L2.0398 72.7548Z" stroke="#3D3D3D" stroke-width="0.984" stroke-miterlimit="10" stroke-linecap="round" stroke-linejoin="round"/>
</svg>
