<svg width="21" height="19" viewBox="0 0 21 19" fill="none" xmlns="http://www.w3.org/2000/svg">
<path d="M15.7648 2.73208C16.1184 2.40231 16.7371 2.40231 17.0906 2.73208C17.4442 3.06185 17.4442 3.63894 17.0906 3.9687L4.27434 15.9227C3.92078 16.2525 3.30206 16.2525 2.94851 15.9227C2.59496 15.5929 2.59496 15.0159 2.94851 14.6861L15.7648 2.73208Z" fill="#3D3D3D"/>
<path d="M17.0906 14.6861C17.4441 15.0159 17.4441 15.5929 17.0906 15.9227C16.737 16.2525 16.1183 16.2525 15.7647 15.9227L2.94842 3.9687C2.59486 3.63894 2.59486 3.06185 2.94842 2.73208C3.30197 2.40231 3.92069 2.40231 4.27424 2.73208L17.0906 14.6861Z" fill="#3D3D3D"/>
</svg>
