<svg width="86" height="85" viewBox="0 0 86 85" fill="none" xmlns="http://www.w3.org/2000/svg">
<path d="M74.5547 70.4478C75.3489 71.5597 77.255 73.9423 80.1141 76.9602C65.9773 84.108 42.6278 83.9492 23.8847 83.9492C10.3832 63.9353 1.32936 15.6479 0.535156 4.37027C19.2783 4.37027 41.8336 3.25839 56.7646 0.558105C63.277 24.3841 72.8074 45.5099 84.8793 62.9823C66.1362 70.1301 47.2342 69.9713 28.6499 69.9713C19.4371 54.2461 15.9427 42.4919 15.9427 38.5209M57.5703 43.6479C54.4529 39.7748 29.9068 31.6094 23.8847 31.3354M35.0078 51.2104C35.6328 43.0229 42.9455 24.8607 52.1582 18.3482" stroke="#3D3D3D" stroke-width="0.984" stroke-miterlimit="10" stroke-linecap="round" stroke-linejoin="round"/>
</svg>
