<svg width="17" height="21" viewBox="0 0 17 21" fill="none" xmlns="http://www.w3.org/2000/svg">
<path fill-rule="evenodd" clip-rule="evenodd" d="M14.502 0.630371H15.0645C15.752 0.630371 16.3145 1.19287 16.3145 1.88037V2.44287V4.25537V18.3804V18.8179V19.3804C16.3145 20.0679 15.752 20.6304 15.0645 20.6304H14.502H14.1895H2.18945H1.87695H1.31445C0.626953 20.6304 0.0644531 20.0679 0.0644531 19.3804V18.8179V18.3804V5.50537H3.68945H4.31445C4.68945 5.50537 4.93945 5.25537 4.93945 4.88037V4.25537V0.630371H12.877H14.502ZM4.02448 4.24902C4.02448 4.45385 3.88793 4.5904 3.6831 4.5904H0.0644531L3.9562 0.630371H4.02448V4.24902Z" fill="#E12764"/>
</svg>
