<svg width="21" height="21" viewBox="0 0 21 21" fill="none" xmlns="http://www.w3.org/2000/svg">
<path d="M7.59921 5.49647H11.897C11.9189 5.49763 11.9407 5.49763 11.9626 5.49647C12.2968 5.47834 12.553 5.19276 12.5349 4.85859C12.5349 4.50628 12.2493 4.2207 11.897 4.2207H7.59921C7.2469 4.2207 6.96132 4.50628 6.96132 4.85859C6.96016 4.88044 6.96016 4.9023 6.96132 4.92415C6.97939 5.25833 7.26497 5.51461 7.59921 5.49647Z" fill="#E12764"/>
<path d="M7.59921 10.9184H16.9926C17.0144 10.9195 17.0363 10.9195 17.0581 10.9184C17.3923 10.9002 17.6486 10.6146 17.6305 10.2805C17.6305 9.92816 17.3449 9.64258 16.9926 9.64258H7.59921C7.2469 9.64258 6.96132 9.92816 6.96132 10.2805C6.96016 10.3023 6.96016 10.3242 6.96132 10.346C6.97939 10.6802 7.26497 10.9364 7.59921 10.9184Z" fill="#E12764"/>
<path d="M7.59921 8.04921H16.8038C16.8257 8.05037 16.8476 8.05037 16.8694 8.04921C17.2036 8.03108 17.4599 7.7455 17.4417 7.41132C17.4417 7.05902 17.1561 6.77344 16.8038 6.77344H7.59921C7.2469 6.77344 6.96132 7.05902 6.96132 7.41132C6.96016 7.43318 6.96016 7.45503 6.96132 7.47689C6.97939 7.81106 7.26497 8.06734 7.59921 8.04921Z" fill="#E12764"/>
<path d="M20.1334 0.83985L4.47336 0.83985C4.10945 0.838324 3.80476 1.1153 3.77167 1.47774V4.02928H1.42312C1.05921 4.02775 0.754523 4.30473 0.721436 4.6671V19.9764C0.729921 20.2171 0.880159 20.43 1.10414 20.5186C1.19779 20.5832 1.30938 20.6166 1.42306 20.6143C1.5468 20.6171 1.66871 20.5839 1.7739 20.5186L5.66501 17.7438H15.1898C15.559 17.7291 15.8596 17.4421 15.8914 17.074V14.5544L19.7506 17.3292C19.8691 17.3903 20.0001 17.4231 20.1333 17.4249C20.4866 17.4002 20.7768 17.1364 20.835 16.787V1.47774C20.802 1.1153 20.4974 0.838324 20.1334 0.83985ZM14.6157 16.468H5.47368C5.33016 16.4694 5.18871 16.5021 5.05905 16.5637L1.99721 18.7325V5.30499H3.77167V13.8846C3.80354 14.2527 4.10414 14.5397 4.47336 14.5543H14.6157L14.6157 16.468ZM19.5593 15.5431L16.4975 13.3743C16.3679 13.3127 16.2263 13.2801 16.0828 13.2787H5.04745V2.11562H19.5593V15.5431Z" fill="#E12764"/>
</svg>
