<svg xmlns="http://www.w3.org/2000/svg" width="81" height="114" viewBox="0 0 81 114" fill="none">
<path d="M26.2367 0.552734H39.9617H72.7061C76.0198 0.552734 78.7061 3.23903 78.7061 6.55273V106.497C78.7061 109.811 76.0198 112.497 72.7061 112.497H7.21729C3.90359 112.497 1.21729 109.811 1.21729 106.497V56.5249L1.21729 25.638L26.2367 0.552734Z" fill="white"/>
<path fill-rule="evenodd" clip-rule="evenodd" d="M25.0708 0.0117188L0.145508 24.8272V103.101C0.145508 109.149 5.05314 113.941 10.9856 113.941H69.3054C75.2341 113.941 80.1455 109.153 80.1455 103.21V10.8518C80.1455 4.80352 75.2379 0.0117188 69.3054 0.0117188H25.0708ZM10.9856 111.773C6.19011 111.773 2.31353 107.897 2.31353 103.101V26.4615H15.8637C21.8018 26.4615 26.5898 21.6662 26.7038 15.7402V2.17974H69.3054C74.1009 2.17974 77.9775 6.05632 77.9775 10.8518V103.101C77.9775 107.897 74.1009 111.773 69.3054 111.773H10.9856ZM26.7038 1.63774H69.3054C71.4614 1.63774 73.4428 2.3754 75.0112 3.61252C73.4428 2.37535 71.4615 1.6376 69.3054 1.6376H26.7038V1.63774ZM24.5358 2.83002L3.07236 24.2934H3.07247L24.5358 2.83013V2.83002ZM2.53035 24.8354L2.53018 24.8356H2.5303L2.53046 24.8354H2.53035ZM3.29698 24.8354L3.29681 24.8356H15.8637C20.9586 24.8356 25.0778 20.7164 25.0778 15.6215V3.05462L25.0778 3.05464V15.6213C25.0778 20.7162 20.9585 24.8354 15.8637 24.8354H3.29698ZM3.83898 24.2934H15.8637C20.6592 24.2934 24.5358 20.4169 24.5358 15.6213V3.59664L3.83898 24.2934ZM25.0778 2.28813L25.0778 2.28811V2.28799L25.0778 2.28801V2.28813ZM0.687531 25.0524L0.687513 25.0524V103.101C0.687513 108.846 5.34876 113.399 10.9856 113.399H69.3054C70.9018 113.399 72.4199 113.034 73.776 112.383C72.4199 113.034 70.9017 113.399 69.3054 113.399H10.9856C5.34878 113.399 0.687531 108.846 0.687531 103.101V26.4615V25.0524ZM78.5195 10.8517L78.5195 10.8518V103.101L78.5195 103.101V10.8517Z" fill="#C2C2C2"/>
<g clip-path="url(#clip50)">
<path d="M40.1457 53.0703C39.5446 53.0703 39.0436 53.5712 39.0436 54.1724V61.0852H32.231C31.6298 60.985 31.1289 61.486 31.1289 62.0871C31.1289 62.6882 31.6298 63.1891 32.231 63.1891H39.1438V70.102C39.1438 70.7031 39.6447 71.204 40.2459 71.204C40.847 71.204 41.3479 70.7031 41.3479 70.102V63.1891H48.2608C48.8619 63.1891 49.3628 62.6882 49.3628 62.0871C49.3628 61.486 48.8619 60.985 48.2608 60.985H41.3479V54.1724C41.2477 53.5712 40.7468 53.0703 40.1457 53.0703Z" fill="#E12764"/>
<path d="M40.1455 46.0566C31.3291 46.0566 24.1157 53.2701 24.1157 62.0865C24.1157 70.9028 31.3291 78.1163 40.1455 78.1163C48.9619 78.1163 56.1753 70.9028 56.1753 62.0865C56.1753 53.2701 48.9619 46.0566 40.1455 46.0566ZM40.1455 76.0123C32.4312 76.0123 26.2196 69.8008 26.2196 62.0865C26.2196 54.3721 32.4312 48.1606 40.1455 48.1606C47.8599 48.1606 54.0714 54.3721 54.0714 62.0865C54.0714 69.8008 47.8599 76.0123 40.1455 76.0123Z" fill="#E12764"/>
</g>
<defs>
<clipPath id="clip50">
<rect width="32.0596" height="32.0596" fill="white" transform="translate(24.1157 46.0566)"/>
</clipPath>
</defs>
</svg>