<svg width="13" height="17" viewBox="0 0 13 17" fill="none" xmlns="http://www.w3.org/2000/svg">
<path d="M0.578125 2.68555C0.578125 1.85712 1.2497 1.18555 2.07812 1.18555H8.01299C8.41121 1.18555 8.79309 1.3439 9.07446 1.6257L11.1396 3.69399C11.4204 3.97523 11.5781 4.35641 11.5781 4.75384V14.6855C11.5781 15.514 10.9066 16.1855 10.0781 16.1855H2.07813C1.2497 16.1855 0.578125 15.514 0.578125 14.6855V2.68555Z" stroke="#3D3D3D"/>
<path d="M11.7203 5.17503L9.56851 5.18491C8.46036 5.18999 7.55933 4.29309 7.55933 3.18493V0.982422" stroke="#3D3D3D"/>
<line x1="9.09863" y1="8.94727" x2="3.0577" y2="8.94727" stroke="#3D3D3D"/>
<line x1="6.66895" y1="11.209" x2="3.05784" y2="11.209" stroke="#3D3D3D"/>
<line x1="9.09863" y1="13.4707" x2="3.0577" y2="13.4707" stroke="#3D3D3D"/>
</svg>
