<svg width="25" height="33" viewBox="0 0 25 33" fill="none" xmlns="http://www.w3.org/2000/svg">
<path d="M22.9917 31.6953H2.9917C2.16327 31.6953 1.4917 31.0237 1.4917 30.1953V2.19531C1.4917 1.36689 2.16327 0.695312 2.9917 0.695312H17.6908C18.089 0.695312 18.4709 0.853663 18.7522 1.13546L24.0532 6.44452C24.334 6.72576 24.4917 7.10694 24.4917 7.50437V30.1953C24.4917 31.0237 23.8201 31.6953 22.9917 31.6953Z" stroke="#C9CACA"/>
<path d="M24.2761 6.63471L20.409 6.65225C19.3009 6.65727 18.3999 5.76038 18.3999 4.65227V0.785156" stroke="#C9CACA"/>
<path d="M7.80448 26.1112H8.46448C8.92248 26.1112 9.27248 26.0882 9.51348 26.0402C9.69148 26.0012 9.86648 25.9222 10.0385 25.8032C10.2105 25.6832 10.3515 25.5192 10.4635 25.3092C10.5755 25.0992 10.6305 24.8402 10.6305 24.5342C10.6305 24.1352 10.5335 23.8092 10.3395 23.5572C10.1455 23.3052 9.90548 23.1422 9.61848 23.0672C9.43148 23.0172 9.03048 22.9922 8.41548 22.9922H6.79248V28.0032H7.80448V26.1112ZM7.80448 23.8382H8.29348C8.65848 23.8382 8.90048 23.8502 9.02148 23.8722C9.18548 23.9012 9.32148 23.9762 9.42848 24.0952C9.53548 24.2132 9.58948 24.3642 9.58948 24.5462C9.58948 24.6932 9.55148 24.8232 9.47448 24.9352C9.39848 25.0472 9.29248 25.1292 9.15848 25.1812C9.02448 25.2342 8.75748 25.2602 8.35848 25.2602H7.80448V23.8382V23.8382Z" fill="#C9CACA"/>
<path d="M14.2575 27.8982C14.5555 27.8022 14.7935 27.6692 14.9685 27.4982C15.2005 27.2722 15.3795 26.9772 15.5045 26.6132C15.6075 26.3142 15.6585 25.9592 15.6585 25.5472C15.6585 25.0772 15.6035 24.6832 15.4945 24.3622C15.3855 24.0412 15.2245 23.7712 15.0155 23.5502C14.8055 23.3282 14.5535 23.1752 14.2595 23.0882C14.0405 23.0252 13.7225 22.9922 13.3055 22.9922H11.4565V28.0032H13.3605C13.7355 28.0032 14.0345 27.9682 14.2575 27.8982ZM12.4705 27.1602V23.8402H12.9255C13.3385 23.8402 13.6145 23.8562 13.7565 23.8882C13.9455 23.9292 14.1015 24.0072 14.2245 24.1242C14.3485 24.2392 14.4435 24.4012 14.5125 24.6082C14.5805 24.8162 14.6155 25.1132 14.6155 25.5012C14.6155 25.8892 14.5815 26.1942 14.5125 26.4192C14.4435 26.6442 14.3555 26.8052 14.2465 26.9022C14.1385 27.0002 14.0025 27.0692 13.8385 27.1102C13.7135 27.1422 13.5095 27.1592 13.2265 27.1592H12.4705V27.1602Z" fill="#C9CACA"/>
<path d="M17.5359 25.8732H19.6279V25.0262H17.5359V23.8392H19.9599V22.9922H16.5239V28.0022H17.5359V25.8732Z" fill="#C9CACA"/>
<path d="M18.2417 11.5322H15.2417V7.29688H10.7417V11.5322H7.7417L12.9917 16.4733L18.2417 11.5322ZM7.7417 17.8851V19.2969H18.2417V17.8851H7.7417Z" fill="#E12764"/>
</svg>
