<svg width="30" height="30" viewBox="0 0 17 17" fill="none" xmlns="http://www.w3.org/2000/svg">
<path fill-rule="evenodd" clip-rule="evenodd" d="M16.5377 8.92725C16.5377 13.3455 12.956 16.9272 8.53772 16.9272C4.11944 16.9272 0.53772 13.3455 0.53772 8.92725C0.53772 4.50897 4.11944 0.927246 8.53772 0.927246C12.956 0.927246 16.5377 4.50897 16.5377 8.92725ZM7.98772 4.97725C7.98772 4.67725 8.23772 4.42725 8.53772 4.42725C8.83772 4.42725 9.08772 4.67725 9.13772 4.97725V8.37725H12.5877C12.8877 8.37725 13.1377 8.62725 13.1377 8.92725C13.1377 9.22725 12.8877 9.47725 12.5877 9.47725H9.13772V12.9272C9.13772 13.2272 8.88772 13.4772 8.58772 13.4772C8.28772 13.4772 8.03772 13.2272 8.03772 12.9272V9.47725H4.58772C4.28772 9.47725 4.03772 9.22725 4.03772 8.92725C4.03772 8.62725 4.28772 8.37725 4.58772 8.42725H7.98772V4.97725Z" fill="#E12764"/>
</svg>
