<svg width="17" height="17" viewBox="0 0 17 17" fill="none" xmlns="http://www.w3.org/2000/svg">
<g clip-path="url(#clip0)">
<path d="M8.89014 0.371094C4.49014 0.371094 0.890137 3.97109 0.890137 8.37109C0.890137 12.7711 4.49014 16.3711 8.89014 16.3711C13.2901 16.3711 16.8901 12.7711 16.8901 8.37109C16.8901 3.97109 13.2901 0.371094 8.89014 0.371094ZM8.89014 15.3211C5.04014 15.3211 1.94014 12.2211 1.94014 8.37109C1.94014 4.52109 5.04014 1.42109 8.89014 1.42109C12.7401 1.42109 15.8401 4.52109 15.8401 8.37109C15.8401 12.2211 12.7401 15.3211 8.89014 15.3211Z" fill="#E12764"/>
<path d="M9.49014 6.57031H8.24014C8.19014 6.57031 8.14014 6.62031 8.14014 6.67031V12.7203C8.14014 12.7703 8.19014 12.8203 8.24014 12.8203H9.49014C9.54014 12.8203 9.59014 12.7703 9.59014 12.7203V6.67031C9.64014 6.62031 9.59014 6.57031 9.49014 6.57031Z" fill="#E12764"/>
<path d="M9.49014 3.87109H8.24014C8.19014 3.87109 8.14014 3.92109 8.14014 3.97109V5.22109C8.14014 5.27109 8.19014 5.32109 8.24014 5.32109H9.49014C9.54014 5.32109 9.59014 5.27109 9.59014 5.22109V4.02109C9.64014 3.92109 9.59014 3.87109 9.49014 3.87109Z" fill="#E12764"/>
</g>
<defs>
<clipPath id="clip0">
<rect width="16" height="16" fill="white" transform="translate(0.890137 0.371094)"/>
</clipPath>
</defs>
</svg>
