<svg width="17" height="17" viewBox="0 0 17 17" fill="none" xmlns="http://www.w3.org/2000/svg">
<path d="M8.82837 0.685547C4.42837 0.685547 0.828369 4.28555 0.828369 8.68555C0.828369 13.0855 4.42837 16.6855 8.82837 16.6855C13.2284 16.6855 16.8284 13.0855 16.8284 8.68555C16.8284 4.28555 13.2284 0.685547 8.82837 0.685547ZM9.47837 13.1855C9.47837 13.2355 9.42837 13.2855 9.42837 13.2855H8.27837C8.22837 13.2855 8.22837 13.2355 8.22837 13.1855V12.0355C8.22837 11.9855 8.27837 11.9355 8.27837 11.9355H9.42837C9.47837 11.9355 9.47837 11.9855 9.47837 12.0355V13.1855ZM10.8284 8.53555L10.2284 9.13555C9.77837 9.58555 9.47837 9.98555 9.47837 10.8855C9.47837 10.9355 9.42837 10.9855 9.42837 10.9855H8.17837V10.6355C8.17837 9.93555 8.47837 9.28555 8.92837 8.78555L9.72837 7.98555C10.0784 7.63555 10.2284 7.13555 10.0284 6.63555C9.87837 6.23555 9.52837 5.93555 9.12837 5.83555C8.27837 5.63555 7.52837 6.23555 7.47837 7.03555C7.47837 7.08555 7.42837 7.08555 7.42837 7.08555H6.27837C6.22837 7.08555 6.17837 7.03555 6.17837 6.98555C6.22837 5.58555 7.37837 4.43555 8.77837 4.43555C9.67837 4.43555 10.4784 4.93555 10.9284 5.63555C11.7284 6.73555 11.4784 7.83555 10.8284 8.53555Z" fill="#DEDEDE"/>
</svg>
