<svg width="21" height="21" viewBox="0 0 21 21" fill="none" xmlns="http://www.w3.org/2000/svg">
<path d="M12.1435 17.7968L15.8136 10.446L16.5344 11.1674L20.4814 8.3303L19.6749 7.20619L16.6817 9.35752L11.6446 4.31653L13.7715 1.34486L12.6472 0.539062L9.83755 4.4653L10.5601 5.18841L3.21295 8.85896L3.1922 9.26238C3.02211 12.5953 2.69472 16.3018 0.955076 18.0992L0.481445 18.5884L2.43059 20.5391L2.91978 20.0481C4.6411 18.3189 8.22133 17.9981 11.7411 17.8179L12.1435 17.7968ZM4.52563 17.5165L7.77639 14.2632C8.04329 14.2643 8.31052 14.1633 8.5145 13.9595C8.91933 13.5543 8.91898 12.8969 8.5145 12.4915C8.10932 12.0867 7.4528 12.0863 7.04762 12.4918C6.81876 12.7208 6.72403 13.0305 6.75377 13.3298L3.39583 16.6903C4.18164 14.6677 4.42053 12.1292 4.55225 9.73672L11.5914 6.22048L14.7827 9.41427L11.2667 16.4564C8.86574 16.5886 6.46094 16.8132 4.52563 17.5165Z" fill="#E12764"/>
</svg>
