<svg width="41" height="44" viewBox="0 0 31 33" fill="none" xmlns="http://www.w3.org/2000/svg">
<path fill-rule="evenodd" clip-rule="evenodd" d="M15.6943 31.9998C15.7316 32.0037 15.7689 32.0059 15.8062 32.0059C15.8434 32.0059 15.8807 32.0037 15.918 31.9998C24.2743 31.0882 30.5096 25.3733 30.792 18.3895C30.801 18.3472 30.8062 18.3038 30.8062 18.2594V0.716971C30.8062 0.324437 30.4222 0.00585938 29.949 0.00585938H1.6633C1.19015 0.00585938 0.806152 0.324437 0.806152 0.716971V18.2594C0.806152 18.3031 0.810867 18.3461 0.820295 18.3874C1.10101 25.3723 7.33672 31.0882 15.6943 31.9998ZM19.8991 16.5628L23.3195 20.5868C23.5877 20.855 23.3865 21.3245 22.85 21.3245H17.2836V23.873C17.2836 24.0071 17.1494 24.1412 17.0153 24.1412H14.4668C14.3327 24.1412 14.1986 24.0071 14.1986 23.873V21.3245H8.63213C8.22974 21.3245 8.02854 20.855 8.29681 20.5868L11.7171 16.5628H9.70518C9.36985 16.5628 9.23572 16.2275 9.43692 15.9593L12.7902 12.0024H10.51C10.2417 12.0024 10.0405 11.6671 10.2417 11.4659L15.5399 5.22878C15.674 5.09465 15.9423 5.09465 16.0764 5.22878L21.3746 11.4659C21.5758 11.6671 21.3746 12.0024 21.1063 12.0024H18.8261L22.1794 15.9593C22.4476 16.1605 22.2464 16.5628 21.9111 16.5628H19.8991Z" fill="#38DAB6"/>
</svg>
