<svg width="17" height="21" viewBox="0 0 17 21" fill="none" xmlns="http://www.w3.org/2000/svg">
<path fill-rule="evenodd" clip-rule="evenodd" d="M15.0654 0.458984H14.5029H12.8779H4.94043V4.08398V4.70898C4.94043 5.08398 4.69043 5.33398 4.31543 5.33398H3.69043H0.0654297V18.209V18.6465V19.209C0.0654297 19.8965 0.62793 20.459 1.31543 20.459H1.87793H2.19043H14.1904H14.5029H15.0654C15.7529 20.459 16.3154 19.8965 16.3154 19.209V18.6465V18.209V4.08398V2.27148V1.70898C16.3154 1.02148 15.7529 0.458984 15.0654 0.458984ZM3.68408 4.41901C3.88891 4.41901 4.02546 4.28246 4.02546 4.07763V0.458984H3.95718L0.0654297 4.41901H3.68408ZM10.3779 9.83398H11.6279C11.8004 9.83398 11.9404 9.97398 11.9404 10.1465V16.3965C11.9404 16.569 11.8004 16.709 11.6279 16.709H4.75293C4.58043 16.709 4.44043 16.569 4.44043 16.3965V10.1465C4.44043 9.97398 4.58043 9.83398 4.75293 9.83398H6.00293V8.89648C6.00293 7.69023 6.98418 6.70898 8.19043 6.70898C9.39668 6.70898 10.3779 7.69023 10.3779 8.89648V9.83398ZM8.50293 14.834V13.8521C9.04043 13.7124 9.44043 13.2271 9.44043 12.6465C9.44043 11.9571 8.8798 11.3965 8.19043 11.3965C7.50105 11.3965 6.94043 11.9571 6.94043 12.6465C6.94043 13.2271 7.34043 13.7124 7.87793 13.8521V14.834H8.50293ZM6.62793 8.89648V9.83398H9.75293V8.89648C9.75293 8.03492 9.05199 7.33398 8.19043 7.33398C7.32887 7.33398 6.62793 8.03492 6.62793 8.89648Z" fill="#E12764"/>
</svg>
