      <svg
        width="21"
        height="21"
        viewBox="0 0 21 21"
        xmlns="http://www.w3.org/2000/svg"
        >
        <g clipPath="url(#clip0)">
          <path d="M10.2988 5.56445C11.6795 5.56445 12.7988 4.44517 12.7988 3.06445C12.7988 1.68374 11.6795 0.564453 10.2988 0.564453C8.91812 0.564453 7.79883 1.68374 7.79883 3.06445C7.79883 4.44517 8.91812 5.56445 10.2988 5.56445Z" />
          <path d="M10.2988 13.0645C11.6795 13.0645 12.7988 11.9452 12.7988 10.5645C12.7988 9.18374 11.6795 8.06445 10.2988 8.06445C8.91812 8.06445 7.79883 9.18374 7.79883 10.5645C7.79883 11.9452 8.91812 13.0645 10.2988 13.0645Z" />
          <path d="M10.2988 20.5645C11.6795 20.5645 12.7988 19.4452 12.7988 18.0645C12.7988 16.6837 11.6795 15.5645 10.2988 15.5645C8.91812 15.5645 7.79883 16.6837 7.79883 18.0645C7.79883 19.4452 8.91812 20.5645 10.2988 20.5645Z" />
        </g>
        <defs>
          <clipPath id="clip0">
            <rect width="20" height="20" fill="white" transform="translate(0.298828 0.564453)" />
          </clipPath>
        </defs>
      </svg>