<svg width="21" height="21" viewBox="0 0 21 21" fill="none" xmlns="http://www.w3.org/2000/svg">
<g clip-path="url(#clip07)">
<path d="M10.5571 0.369141C5.05713 0.369141 0.557129 4.86914 0.557129 10.3691C0.557129 15.8691 5.05713 20.3691 10.5571 20.3691C16.0571 20.3691 20.5571 15.8691 20.5571 10.3691C20.5571 4.86914 16.0571 0.369141 10.5571 0.369141ZM10.5571 19.0566C5.74463 19.0566 1.86963 15.1816 1.86963 10.3691C1.86963 5.55664 5.74463 1.68164 10.5571 1.68164C15.3696 1.68164 19.2446 5.55664 19.2446 10.3691C19.2446 15.1816 15.3696 19.0566 10.5571 19.0566Z" fill="#C9CACA"/>
<path d="M14.1821 7.11914L8.99463 12.2441L6.93213 10.1816C6.68213 9.93164 6.24463 9.93164 5.99463 10.1816C5.74463 10.4316 5.74463 10.8691 5.99463 11.1191L8.55713 13.6816C8.68213 13.8066 8.86963 13.8691 8.99463 13.8691C9.11963 13.8691 9.30713 13.8066 9.43213 13.6816L15.0571 8.05664C15.3071 7.80664 15.3071 7.36914 15.0571 7.11914C14.8696 6.86914 14.4321 6.86914 14.1821 7.11914Z" fill="#C9CACA"/>
</g>
<defs>
<clipPath id="clip07">
<rect width="20" height="20" fill="white" transform="matrix(1 0 0 -1 0.557129 20.3691)"/>
</clipPath>
</defs>
</svg>
