<svg width="21" height="21" viewBox="0 0 21 21" fill="none" xmlns="http://www.w3.org/2000/svg">
<path d="M10.5571 20.3691C16.0571 20.3691 20.5571 15.8691 20.5571 10.3691C20.5571 4.86914 16.0571 0.369141 10.5571 0.369141C5.05713 0.369141 0.557129 4.86914 0.557129 10.3691C0.557129 15.8691 5.05713 20.3691 10.5571 20.3691ZM8.68213 12.4941L14.9321 6.61914C15.2446 6.30664 15.7446 6.30664 16.0571 6.61914C16.3696 6.93164 16.3696 7.36914 16.0571 7.68164L9.24463 14.1191C9.11963 14.2441 8.86963 14.3066 8.68213 14.3066C8.49463 14.3066 8.24463 14.2441 8.11963 14.1191L4.99463 11.2441C4.68213 10.9316 4.68213 10.4941 4.99463 10.1816C5.30713 9.86914 5.80713 9.86914 6.11963 10.1816L8.68213 12.4941Z" fill="#38DAB6"/>
</svg>
