<svg width="21" height="21" viewBox="0 0 21 21" fill="none" xmlns="http://www.w3.org/2000/svg">
<g clip-path="url(#clip0)">
<path d="M10.8323 0.0253906C5.33228 0.0253906 0.832275 4.52539 0.832275 10.0254C0.832275 15.5254 5.33228 20.0254 10.8323 20.0254C16.3323 20.0254 20.8323 15.5254 20.8323 10.0254C20.8323 4.52539 16.3323 0.0253906 10.8323 0.0253906ZM10.8323 18.7129C6.01978 18.7129 2.14478 14.8379 2.14478 10.0254C2.14478 5.21289 6.01978 1.33789 10.8323 1.33789C15.6448 1.33789 19.5198 5.21289 19.5198 10.0254C19.5198 14.8379 15.6448 18.7129 10.8323 18.7129Z" fill="#E12764"/>
<path d="M14.4573 6.77539L9.26978 11.9004L7.20728 9.83789C6.95728 9.58789 6.51978 9.58789 6.26978 9.83789C6.01978 10.0879 6.01978 10.5254 6.26978 10.7754L8.83228 13.3379C8.95728 13.4629 9.14478 13.5254 9.26978 13.5254C9.39478 13.5254 9.58228 13.4629 9.70728 13.3379L15.3323 7.71289C15.5823 7.46289 15.5823 7.02539 15.3323 6.77539C15.1448 6.52539 14.7073 6.52539 14.4573 6.77539Z" fill="#E12764"/>
</g>
<defs>
<clipPath id="clip0">
<rect width="20" height="20" fill="white" transform="matrix(1 0 0 -1 0.832275 20.0254)"/>
</clipPath>
</defs>
</svg>
