<svg width="17" height="17" viewBox="0 0 17 17" fill="none" xmlns="http://www.w3.org/2000/svg">
<g clip-path="url(#clip0)">
<path d="M16.4062 14.8185H0.40625V16.0685H16.4062V14.8185Z" fill="#E12764"/>
<path d="M11.6562 5.06851L13.0562 3.66851C13.2562 3.46851 13.2562 3.11851 13.0562 2.86851L10.4562 0.218512C10.2562 0.018512 9.90623 0.018512 9.65623 0.218512L8.25623 1.66851L11.6562 5.06851Z" fill="#E12764"/>
<path d="M7.40625 2.51852L0.55625 9.31852C0.45625 9.41852 0.40625 9.56852 0.40625 9.71852V12.3685C0.40625 12.5185 0.45625 12.6685 0.55625 12.7685C0.65625 12.8685 0.80625 12.9185 0.95625 12.9185H3.60625C3.75625 12.9185 3.90625 12.8685 4.00625 12.7685L10.8062 5.91852L7.40625 2.51852Z" fill="#E12764"/>
</g>
<defs>
<clipPath id="clip0">
<rect width="16" height="16" fill="white" transform="translate(0.40625 0.068512)"/>
</clipPath>
</defs>
</svg>
