        <svg
          key="123"
          width="17"
          height="17"
          viewBox="0 0 17 17"
          fill="none"
          xmlns="http://www.w3.org/2000/svg"
          className="mr-1 pt-1">
          <path
            d="M8.05859 16.3906C12.4586 16.3906 16.0586 12.7906 16.0586 8.39062C16.0586 3.99062 12.4586 0.390625 8.05859 0.390625C3.65859 0.390625 0.0585938 3.99062 0.0585938 8.39062C0.0585938 12.7906 3.65859 16.3906 8.05859 16.3906ZM6.55859 10.0906L11.5586 5.39062C11.8086 5.14062 12.2086 5.14062 12.4586 5.39062C12.7086 5.64062 12.7086 5.99062 12.4586 6.24062L7.00859 11.3906C6.90859 11.4906 6.70859 11.5406 6.55859 11.5406C6.40859 11.5406 6.20859 11.4906 6.10859 11.3906L3.60859 9.09062C3.35859 8.84062 3.35859 8.49063 3.60859 8.24062C3.85859 7.99062 4.25859 7.99062 4.50859 8.24062L6.55859 10.0906Z"
            fill="white"
          />
        </svg>